<svg width="48" height="11" viewBox="0 0 48 11" fill="none" xmlns="http://www.w3.org/2000/svg">
<path d="M0.457526 0.524031V9.7611L2.5345 11H6.28763V8.86837H2.75313V0.524031H0.457526ZM13.0105 0.524031V9.7611L10.9517 11H7.18036V8.86837H10.7149V0.524031H13.0105ZM20.838 7.4655L17.0666 11L15.0079 10.3441L19.8177 5.77113L15.0079 1.19814L17.0666 0.524031L20.838 4.05853V7.4655ZM22.6781 5.77113L27.5608 10.3441L25.4292 11L21.6578 7.4655V4.05853L25.4292 0.524031L27.5608 1.19814L22.6781 5.77113ZM29.5653 1.78115V11H31.8609V6.80961H35.3954V4.73264H31.8609V2.58279H35.3954V0.524031H31.6423L29.5653 1.78115ZM42.1183 1.78115V11H39.8227V6.80961H36.2153V4.73264H39.8227V2.58279H36.2153V0.524031H39.9684L42.1183 1.78115ZM45.0266 0.524031H47.3223V11H45.0266V0.524031Z" fill="#171717"/>
</svg>
