<svg width="26" height="26" viewBox="0 0 26 26" fill="none" xmlns="http://www.w3.org/2000/svg">
<rect width="26" height="26" rx="2" fill="#FF0000"/>
<path d="M3 7V14.0539L4.58609 15H7.45217V13.3722H4.75304V7H3ZM12.5861 7V14.0539L11.0139 15H8.13391V13.3722H10.8331V7H12.5861ZM18.5636 12.3009L15.6836 15L14.1114 14.4991L17.7844 11.007L14.1114 7.51479L15.6836 7L18.5636 9.69913V12.3009ZM19.9688 11.007L23.6975 14.4991L22.0697 15L19.1896 12.3009V9.69913L22.0697 7L23.6975 7.51479L19.9688 11.007Z" fill="white"/>
<path d="M4.56982 18.56L4.50553 18.4486L4.74553 18.3114C4.94267 18.2029 5.04124 18.03 5.04124 17.7929C5.04124 17.35 4.7041 17.1286 4.02982 17.1286H3.63553V20H3.50696V17H4.02982C4.40696 17 4.69124 17.07 4.88267 17.21C5.0741 17.3471 5.16982 17.5414 5.16982 17.7929C5.16982 18.0786 5.04982 18.2886 4.80982 18.4229L4.56982 18.56ZM7.39139 18.7529L7.97425 20H7.83282L7.23282 18.7143C7.23853 18.7114 7.26282 18.7 7.30568 18.68C7.35139 18.6571 7.38282 18.6414 7.39996 18.6329C7.4171 18.6214 7.44568 18.6029 7.48568 18.5771C7.52568 18.5514 7.55568 18.5271 7.57568 18.5043C7.59568 18.4786 7.6171 18.45 7.63996 18.4186C7.66568 18.3843 7.68425 18.3471 7.69568 18.3071C7.7071 18.2643 7.71282 18.2186 7.71282 18.17C7.71282 17.99 7.6271 17.8571 7.45568 17.7714C7.28425 17.6857 7.07139 17.6429 6.8171 17.6429H6.47425V20H6.34568V17.5143H6.8171C7.15425 17.5143 7.40853 17.5729 7.57996 17.69C7.75425 17.8071 7.84139 17.9671 7.84139 18.17C7.84139 18.3014 7.7971 18.4186 7.70853 18.5214C7.61996 18.6214 7.51425 18.6986 7.39139 18.7529ZM9.38264 19.8714H10.7798L9.90121 17.8014L8.96693 20H8.82978L9.90121 17.4714L10.9726 20H9.38264V19.8714ZM13.8744 17.5143L12.803 20.0429L11.7316 17.5143H11.8687L12.803 19.7129L13.7373 17.5143H13.8744ZM16.6221 19.7471C16.465 19.9443 16.2079 20.0429 15.8507 20.0429C15.4936 20.0429 15.2379 19.9414 15.0836 19.7386C14.9293 19.5357 14.8521 19.2086 14.8521 18.7571C14.8521 18.3057 14.9293 17.9786 15.0836 17.7757C15.2379 17.5729 15.4936 17.4714 15.8507 17.4714C16.265 17.4714 16.5464 17.6071 16.695 17.8786L15.645 18.7571H15.4436L16.5279 17.8529C16.4021 17.6843 16.1764 17.6 15.8507 17.6C15.7079 17.6 15.5879 17.6157 15.4907 17.6471C15.3936 17.6757 15.3036 17.7314 15.2207 17.8143C15.1407 17.8943 15.0807 18.0129 15.0407 18.17C15.0007 18.3243 14.9807 18.52 14.9807 18.7571C14.9807 18.9943 15.0007 19.1914 15.0407 19.3486C15.0807 19.5029 15.1407 19.6214 15.2207 19.7043C15.3036 19.7843 15.3936 19.84 15.4907 19.8714C15.5879 19.9 15.7079 19.9143 15.8507 19.9143C16.1764 19.9143 16.4021 19.83 16.5279 19.6614L16.6221 19.7471ZM19.5701 19.7471C19.4129 19.9443 19.1558 20.0429 18.7987 20.0429C18.4415 20.0429 18.1858 19.9414 18.0315 19.7386C17.8772 19.5357 17.8001 19.2086 17.8001 18.7571C17.8001 18.3057 17.8772 17.9786 18.0315 17.7757C18.1858 17.5729 18.4415 17.4714 18.7987 17.4714C19.2129 17.4714 19.4944 17.6071 19.6429 17.8786L18.5929 18.7571H18.3915L19.4758 17.8529C19.3501 17.6843 19.1244 17.6 18.7987 17.6C18.6558 17.6 18.5358 17.6157 18.4387 17.6471C18.3415 17.6757 18.2515 17.7314 18.1687 17.8143C18.0887 17.8943 18.0287 18.0129 17.9887 18.17C17.9487 18.3243 17.9287 18.52 17.9287 18.7571C17.9287 18.9943 17.9487 19.1914 17.9887 19.3486C18.0287 19.5029 18.0887 19.6214 18.1687 19.7043C18.2515 19.7843 18.3415 19.84 18.4387 19.8714C18.5358 19.9 18.6558 19.9143 18.7987 19.9143C19.1244 19.9143 19.3501 19.83 19.4758 19.6614L19.5701 19.7471ZM20.8552 20V17.5143H20.9837L22.3809 19.7643V17.5143H22.5094V20H22.3809L20.9837 17.7457V20H20.8552Z" fill="white"/>
</svg>
