<svg width="48" height="11" viewBox="0 0 48 11" fill="none" xmlns="http://www.w3.org/2000/svg">
<g clip-path="url(#clip0_34_1104)">
<path d="M0.45752 0.523926V9.76099L2.53449 10.9999H6.28762V8.86827H2.75312V0.523926H0.45752ZM13.0105 0.523926V9.76099L10.9517 10.9999H7.18035V8.86827H10.7149V0.523926H13.0105ZM20.838 7.46539L17.0666 10.9999L15.0079 10.344L19.8177 5.77102L15.0079 1.19803L17.0666 0.523926L20.838 4.05842V7.46539ZM22.6781 5.77102L27.5608 10.344L25.4292 10.9999L21.6578 7.46539V4.05842L25.4292 0.523926L27.5608 1.19803L22.6781 5.77102ZM29.5653 1.78104V10.9999H31.8609V6.8095H35.3954V4.73253H31.8609V2.58268H35.3954V0.523926H31.6423L29.5653 1.78104ZM42.1183 1.78104V10.9999H39.8227V6.8095H36.2153V4.73253H39.8227V2.58268H36.2153V0.523926H39.9684L42.1183 1.78104ZM45.0266 0.523926H47.3223V10.9999H45.0266V0.523926Z" fill="#171717"/>
</g>
<defs>
<clipPath id="clip0_34_1104">
<rect width="48" height="11" fill="white"/>
</clipPath>
</defs>
</svg>
