<svg width="1200" height="630" viewBox="0 0 1200 630" fill="none" xmlns="http://www.w3.org/2000/svg">
<rect width="1200" height="630" rx="24" fill="#0052CC"/>
<path d="M1180.53 608.297L1111.32 590.665V566.244L1180.53 548.713V562.697L1166.54 566.548V590.766L1180.53 594.414V608.297ZM1155.3 588.537V568.574L1122.67 576.377V580.633L1155.3 588.537ZM1181.64 523.551C1181.64 525.781 1181.51 528.179 1181.24 530.746C1181.03 533.246 1180.76 535.61 1180.43 537.839C1180.09 540.001 1179.75 541.859 1179.41 543.413L1169.38 543.007C1169.58 541.251 1169.82 539.292 1170.09 537.13C1170.36 534.901 1170.6 532.739 1170.8 530.645C1170.94 528.483 1171 526.727 1171 525.375C1171 523.349 1170.83 521.694 1170.5 520.41C1170.16 519.059 1169.62 518.046 1168.87 517.37C1168.06 516.695 1166.92 516.357 1165.43 516.357C1164.28 516.357 1163.4 516.661 1162.79 517.269C1162.19 517.809 1161.68 518.89 1161.27 520.511C1160.8 522.065 1160.33 524.362 1159.86 527.402C1159.32 531.185 1158.54 534.327 1157.53 536.826C1156.51 539.258 1155.03 541.048 1153.07 542.197C1151.04 543.345 1148.3 543.919 1144.86 543.919C1140.67 543.919 1137.39 543.007 1135.03 541.183C1132.66 539.359 1131.01 536.927 1130.06 533.887C1129.05 530.847 1128.54 527.537 1128.54 523.957C1128.54 521.592 1128.68 519.16 1128.95 516.661C1129.15 514.161 1129.42 511.797 1129.76 509.567C1130.1 507.338 1130.44 505.48 1130.77 503.994L1141.01 504.399C1140.74 506.088 1140.5 508.047 1140.3 510.277C1140.03 512.506 1139.83 514.735 1139.69 516.965C1139.56 519.127 1139.49 520.951 1139.49 522.437C1139.49 523.991 1139.66 525.375 1139.99 526.591C1140.26 527.807 1140.74 528.753 1141.41 529.429C1142.09 530.037 1143.1 530.341 1144.45 530.341C1145.4 530.341 1146.18 530.071 1146.78 529.53C1147.39 528.99 1147.93 527.976 1148.41 526.49C1148.81 524.936 1149.22 522.707 1149.62 519.802C1150.23 515.614 1151.07 512.27 1152.15 509.77C1153.24 507.271 1154.79 505.48 1156.82 504.399C1158.84 503.251 1161.58 502.677 1165.02 502.677C1171.17 502.677 1175.5 504.501 1177.99 508.149C1180.43 511.729 1181.64 516.863 1181.64 523.551ZM1181.64 475.458C1181.64 477.687 1181.51 480.085 1181.24 482.652C1181.03 485.152 1180.76 487.516 1180.43 489.746C1180.09 491.907 1179.75 493.765 1179.41 495.319L1169.38 494.914C1169.58 493.157 1169.82 491.198 1170.09 489.036C1170.36 486.807 1170.6 484.645 1170.8 482.551C1170.94 480.389 1171 478.633 1171 477.282C1171 475.255 1170.83 473.6 1170.5 472.316C1170.16 470.965 1169.62 469.952 1168.87 469.276C1168.06 468.601 1166.92 468.263 1165.43 468.263C1164.28 468.263 1163.4 468.567 1162.79 469.175C1162.19 469.715 1161.68 470.796 1161.27 472.418C1160.8 473.971 1160.33 476.268 1159.86 479.308C1159.32 483.091 1158.54 486.233 1157.53 488.732C1156.51 491.164 1155.03 492.955 1153.07 494.103C1151.04 495.251 1148.3 495.826 1144.86 495.826C1140.67 495.826 1137.39 494.914 1135.03 493.09C1132.66 491.266 1131.01 488.834 1130.06 485.794C1129.05 482.754 1128.54 479.443 1128.54 475.863C1128.54 473.499 1128.68 471.067 1128.95 468.567C1129.15 466.067 1129.42 463.703 1129.76 461.474C1130.1 459.244 1130.44 457.387 1130.77 455.9L1141.01 456.306C1140.74 457.995 1140.5 459.954 1140.3 462.183C1140.03 464.412 1139.83 466.642 1139.69 468.871C1139.56 471.033 1139.49 472.857 1139.49 474.343C1139.49 475.897 1139.66 477.282 1139.99 478.498C1140.26 479.714 1140.74 480.659 1141.41 481.335C1142.09 481.943 1143.1 482.247 1144.45 482.247C1145.4 482.247 1146.18 481.977 1146.78 481.436C1147.39 480.896 1147.93 479.883 1148.41 478.396C1148.81 476.843 1149.22 474.613 1149.62 471.708C1150.23 467.52 1151.07 464.176 1152.15 461.676C1153.24 459.177 1154.79 457.387 1156.82 456.306C1158.84 455.157 1161.58 454.583 1165.02 454.583C1171.17 454.583 1175.5 456.407 1177.99 460.055C1180.43 463.635 1181.64 468.77 1181.64 475.458ZM1180.53 445.705H1129.66V432.228H1180.53V445.705ZM1121.55 445.705H1110V432.127H1121.55V445.705ZM1181.64 402.624C1181.64 404.854 1181.51 407.252 1181.24 409.819C1181.03 412.319 1180.76 414.683 1180.43 416.912C1180.09 419.074 1179.75 420.932 1179.41 422.486L1169.38 422.08C1169.58 420.324 1169.82 418.365 1170.09 416.203C1170.36 413.974 1170.6 411.812 1170.8 409.718C1170.94 407.556 1171 405.8 1171 404.448C1171 402.422 1170.83 400.767 1170.5 399.483C1170.16 398.132 1169.62 397.119 1168.87 396.443C1168.06 395.768 1166.92 395.43 1165.43 395.43C1164.28 395.43 1163.4 395.734 1162.79 396.342C1162.19 396.882 1161.68 397.963 1161.27 399.584C1160.8 401.138 1160.33 403.435 1159.86 406.475C1159.32 410.258 1158.54 413.4 1157.53 415.899C1156.51 418.331 1155.03 420.121 1153.07 421.27C1151.04 422.418 1148.3 422.992 1144.86 422.992C1140.67 422.992 1137.39 422.08 1135.03 420.256C1132.66 418.432 1131.01 416 1130.06 412.96C1129.05 409.92 1128.54 406.61 1128.54 403.03C1128.54 400.665 1128.68 398.233 1128.95 395.734C1129.15 393.234 1129.42 390.87 1129.76 388.64C1130.1 386.411 1130.44 384.553 1130.77 383.067L1141.01 383.472C1140.74 385.161 1140.5 387.12 1140.3 389.35C1140.03 391.579 1139.83 393.808 1139.69 396.038C1139.56 398.2 1139.49 400.024 1139.49 401.51C1139.49 403.064 1139.66 404.448 1139.99 405.664C1140.26 406.88 1140.74 407.826 1141.41 408.502C1142.09 409.11 1143.1 409.414 1144.45 409.414C1145.4 409.414 1146.18 409.144 1146.78 408.603C1147.39 408.063 1147.93 407.049 1148.41 405.563C1148.81 404.009 1149.22 401.78 1149.62 398.875C1150.23 394.687 1151.07 391.343 1152.15 388.843C1153.24 386.344 1154.79 384.553 1156.82 383.472C1158.84 382.324 1161.58 381.75 1165.02 381.75C1171.17 381.75 1175.5 383.574 1177.99 387.222C1180.43 390.802 1181.64 395.936 1181.64 402.624ZM1181.74 355.037C1181.74 358.753 1181.2 361.759 1180.12 364.056C1179.04 366.353 1177.18 368.008 1174.55 369.021C1171.85 369.967 1168.1 370.44 1163.3 370.44H1140.91V376.419H1129.66V370.44H1116.18V356.963H1129.66V343.992H1140.91V356.963H1159.75C1162.39 356.963 1164.45 356.861 1165.94 356.659C1167.42 356.388 1168.47 355.848 1169.08 355.037C1169.69 354.227 1169.99 352.977 1169.99 351.288C1169.99 350.815 1169.96 350.106 1169.89 349.16C1169.82 348.214 1169.75 347.268 1169.69 346.323C1169.62 345.377 1169.55 344.6 1169.48 343.992L1180.33 343.587C1180.6 345.208 1180.9 347.167 1181.24 349.464C1181.58 351.693 1181.74 353.551 1181.74 355.037ZM1181.64 323.181C1181.64 328.45 1180.33 332.436 1177.69 335.138C1174.99 337.773 1170.94 339.09 1165.53 339.09C1161.75 339.09 1158.81 338.414 1156.71 337.063C1154.55 335.712 1153 333.719 1152.05 331.085C1151.04 328.382 1150.43 325.106 1150.23 321.255L1149.11 308.893H1146.07C1143.64 308.893 1141.95 309.501 1141.01 310.717C1139.99 311.933 1139.49 313.723 1139.49 316.087C1139.49 317.979 1139.56 320.174 1139.69 322.674C1139.83 325.106 1139.99 327.538 1140.2 329.97C1140.4 332.334 1140.6 334.395 1140.81 336.151L1131.28 336.557C1130.87 334.8 1130.47 332.706 1130.06 330.274C1129.59 327.774 1129.22 325.174 1128.95 322.471C1128.68 319.769 1128.54 317.27 1128.54 314.973C1128.54 310.649 1129.08 307.035 1130.17 304.13C1131.25 301.225 1133.04 299.03 1135.54 297.543C1137.97 296.057 1141.28 295.314 1145.47 295.314H1168.67C1169.62 295.179 1170.36 294.672 1170.9 293.794C1171.37 292.916 1171.71 291.902 1171.91 290.754L1181.24 291.058C1181.3 292.679 1181.34 294.267 1181.34 295.821C1181.34 297.374 1181.24 298.692 1181.03 299.773C1180.83 301.326 1180.43 302.678 1179.82 303.826C1179.21 304.907 1178.57 305.785 1177.89 306.461C1178.37 307.542 1178.91 308.994 1179.51 310.818C1180.12 312.642 1180.63 314.635 1181.03 316.797C1181.44 318.891 1181.64 321.019 1181.64 323.181ZM1171.61 319.938C1171.61 318.654 1171.48 317.303 1171.21 315.885C1170.94 314.466 1170.63 313.149 1170.29 311.933C1169.89 310.649 1169.52 309.636 1169.18 308.893H1157.53L1158.44 319.229C1158.64 321.458 1159.32 323.079 1160.46 324.093C1161.54 325.038 1163.1 325.511 1165.13 325.511C1167.15 325.511 1168.74 325.072 1169.89 324.194C1171.04 323.248 1171.61 321.83 1171.61 319.938ZM1180.53 283.414H1129.66V269.936H1132.9C1132.23 268.855 1131.58 267.538 1130.98 265.984C1130.3 264.431 1129.73 262.809 1129.25 261.12C1128.78 259.364 1128.54 257.675 1128.54 256.054C1128.54 251.325 1129.39 247.677 1131.08 245.11C1132.7 242.475 1135.4 240.617 1139.18 239.536C1142.9 238.455 1147.9 237.915 1154.18 237.915H1180.53V251.494H1154.89C1151.38 251.494 1148.57 251.696 1146.48 252.102C1144.32 252.507 1142.76 253.284 1141.82 254.432C1140.87 255.581 1140.4 257.27 1140.4 259.499C1140.4 260.715 1140.54 261.999 1140.81 263.35C1141.01 264.633 1141.31 265.883 1141.72 267.099C1142.12 268.247 1142.53 269.193 1142.93 269.936H1180.53V283.414ZM1181.64 206.63C1181.64 212.439 1180.76 216.999 1179.01 220.31C1177.18 223.552 1174.28 225.849 1170.29 227.2C1166.31 228.484 1161.07 229.126 1154.59 229.126C1148.17 229.126 1143.07 228.382 1139.29 226.896C1135.43 225.41 1132.7 223.012 1131.08 219.702C1129.39 216.324 1128.54 211.933 1128.54 206.528C1128.54 205.11 1128.65 203.454 1128.85 201.563C1129.05 199.671 1129.32 197.78 1129.66 195.888C1129.93 193.929 1130.2 192.274 1130.47 190.923L1141.31 191.43C1141.18 192.713 1141.08 194.166 1141.01 195.787C1140.87 197.408 1140.77 198.996 1140.7 200.55C1140.57 202.036 1140.5 203.252 1140.5 204.198C1140.5 207.102 1140.97 209.399 1141.92 211.088C1142.8 212.71 1144.28 213.858 1146.38 214.534C1148.41 215.142 1151.14 215.446 1154.59 215.446C1158.3 215.446 1161.27 215.142 1163.5 214.534C1165.73 213.926 1167.32 212.845 1168.27 211.291C1169.21 209.67 1169.69 207.305 1169.69 204.198C1169.69 203.252 1169.65 202.002 1169.58 200.448C1169.45 198.894 1169.31 197.307 1169.18 195.686C1169.04 193.997 1168.94 192.51 1168.87 191.227L1179.72 190.822C1179.99 192.173 1180.26 193.794 1180.53 195.686C1180.87 197.577 1181.14 199.502 1181.34 201.462C1181.54 203.353 1181.64 205.076 1181.64 206.63ZM1181.64 161.509C1181.64 167.116 1180.7 171.575 1178.81 174.885C1176.91 178.128 1174.04 180.459 1170.19 181.877C1166.34 183.296 1161.51 184.005 1155.7 184.005C1149.42 184.005 1144.28 183.127 1140.3 181.371C1136.31 179.547 1133.37 176.912 1131.48 173.467C1129.52 170.021 1128.54 165.765 1128.54 160.699C1128.54 153.2 1130.44 147.559 1134.22 143.776C1138 139.925 1143.98 138 1152.15 138L1159.65 138.608V170.427C1163.44 170.359 1166.27 169.582 1168.17 168.096C1170.06 166.61 1171 164.043 1171 160.395C1171 158.3 1170.97 156.004 1170.9 153.504C1170.77 151.004 1170.63 148.539 1170.5 146.107C1170.36 143.607 1170.23 141.479 1170.09 139.723L1179.51 139.419C1179.78 141.108 1180.09 143.236 1180.43 145.803C1180.76 148.37 1181.03 151.038 1181.24 153.808C1181.51 156.51 1181.64 159.077 1181.64 161.509ZM1151.04 170.427V151.477C1146.45 151.477 1143.24 152.22 1141.41 153.707C1139.59 155.125 1138.68 157.456 1138.68 160.699C1138.68 163.874 1139.62 166.306 1141.51 167.995C1143.41 169.616 1146.58 170.427 1151.04 170.427Z" fill="white" fill-opacity="0.4"/>
<path d="M73 153V336.402L114.238 361H188.757V318.677H118.579V153H73ZM322.239 153V336.402L281.361 361H206.482V318.677H276.66V153H322.239ZM477.654 290.823L402.773 361L361.897 347.977L457.396 257.181L361.897 166.384L402.773 153L477.654 223.177V290.823ZM514.189 257.181L611.135 347.977L568.812 361L493.931 290.823V223.177L568.812 153L611.135 166.384L514.189 257.181ZM650.934 177.96V361H696.513V277.8H766.69V236.562H696.513V193.877H766.69V153H692.173L650.934 177.96ZM900.173 177.96V361H854.594V277.8H782.969V236.562H854.594V193.877H782.969V153H857.487L900.173 177.96ZM957.917 153H1003.5V361H957.917V153Z" fill="white"/>
<path d="M657.969 430.921L656.76 428.825L661.273 426.246C664.98 424.204 666.834 420.954 666.834 416.494C666.834 408.166 660.494 404.002 647.814 404.002H640.399V458H637.981V401.584H647.814C654.906 401.584 660.252 402.901 663.852 405.533C667.452 408.112 669.252 411.766 669.252 416.494C669.252 421.867 666.995 425.816 662.482 428.342L657.969 430.921ZM711.029 434.547L721.99 458H719.33L708.047 433.822C708.154 433.768 708.611 433.553 709.417 433.177C710.277 432.747 710.868 432.452 711.19 432.291C711.513 432.076 712.05 431.726 712.802 431.243C713.554 430.759 714.118 430.303 714.494 429.873C714.871 429.389 715.274 428.852 715.703 428.261C716.187 427.616 716.536 426.918 716.751 426.165C716.966 425.36 717.073 424.5 717.073 423.586C717.073 420.202 715.462 417.703 712.238 416.091C709.014 414.479 705.011 413.673 700.229 413.673H693.782V458H691.364V411.256H700.229C706.569 411.256 711.351 412.357 714.575 414.56C717.853 416.763 719.491 419.772 719.491 423.586C719.491 426.058 718.658 428.261 716.993 430.195C715.327 432.076 713.339 433.526 711.029 434.547ZM748.475 455.582H774.748L758.227 416.655L740.657 458H738.078L758.227 410.45L778.375 458H748.475V455.582ZM832.944 411.256L812.796 458.806L792.647 411.256H795.226L812.796 452.6L830.365 411.256H832.944ZM884.615 453.245C881.66 456.952 876.825 458.806 870.108 458.806C863.392 458.806 858.583 456.899 855.682 453.084C852.781 449.269 851.33 443.117 851.33 434.628C851.33 426.139 852.781 419.987 855.682 416.172C858.583 412.357 863.392 410.45 870.108 410.45C877.899 410.45 883.191 413.002 885.985 418.106L866.24 434.628H862.452L882.842 417.623C880.478 414.453 876.233 412.868 870.108 412.868C867.422 412.868 865.165 413.163 863.338 413.754C861.512 414.291 859.819 415.339 858.261 416.897C856.757 418.402 855.628 420.631 854.876 423.586C854.124 426.488 853.748 430.168 853.748 434.628C853.748 439.087 854.124 442.795 854.876 445.75C855.628 448.651 856.757 450.881 858.261 452.439C859.819 453.943 861.512 454.991 863.338 455.582C865.165 456.119 867.422 456.388 870.108 456.388C876.233 456.388 880.478 454.803 882.842 451.633L884.615 453.245ZM940.052 453.245C937.097 456.952 932.261 458.806 925.545 458.806C918.829 458.806 914.02 456.899 911.119 453.084C908.217 449.269 906.767 443.117 906.767 434.628C906.767 426.139 908.217 419.987 911.119 416.172C914.02 412.357 918.829 410.45 925.545 410.45C933.336 410.45 938.628 413.002 941.422 418.106L921.676 434.628H917.888L938.279 417.623C935.915 414.453 931.67 412.868 925.545 412.868C922.858 412.868 920.602 413.163 918.775 413.754C916.948 414.291 915.256 415.339 913.698 416.897C912.193 418.402 911.065 420.631 910.313 423.586C909.56 426.488 909.184 430.168 909.184 434.628C909.184 439.087 909.56 442.795 910.313 445.75C911.065 448.651 912.193 450.881 913.698 452.439C915.256 453.943 916.948 454.991 918.775 455.582C920.602 456.119 922.858 456.388 925.545 456.388C931.67 456.388 935.915 454.803 938.279 451.633L940.052 453.245ZM964.218 458V411.256H966.636L992.909 453.567V411.256H995.327V458H992.909L966.636 415.608V458H964.218Z" fill="white"/>
</svg>
